<?xml version="1.0" encoding="UTF-8"?>
<svg id="b" data-name="Layer 2" xmlns="http://www.w3.org/2000/svg" width="256" height="256" viewBox="0 0 256 256" fill="#fd6b40">
  <g id="c" data-name="Layer 2">
    <g id="d" data-name="logo">
      <g id="e" data-name="CS">
        <path d="m210.75,82.75c-12.09,12.09-18.75,28.16-18.75,45.25,0,.01,0,.03,0,.04l-64,.04s0-.06,0-.09C128,57.31,185.31,0,256,0v64c-17.1,0-33.17,6.66-45.25,18.75Z"/>
        <path d="m192,128.04c-.01,17.08-6.67,33.13-18.74,45.21-12.09,12.09-28.16,18.75-45.25,18.75s-33.17-6.66-45.25-18.75c-12.09-12.09-18.75-28.16-18.75-45.25s6.66-33.17,18.75-45.25c12.09-12.09,28.16-18.75,45.25-18.75V0C57.31,0,0,57.31,0,128s57.31,128,128,128,127.95-57.26,128-127.91l-64-.04Z"/>
      </g>
    </g>
  </g>
</svg>