<?xml version="1.0" encoding="UTF-8"?>
<svg id="Layer_2" data-name="Layer 2" xmlns="http://www.w3.org/2000/svg" viewBox="0 0 2160 288">
  <defs>
    <style>
      .cls-1 {
        fill: #090a0b;
      }
    </style>
  </defs>
  <g id="LOGO">
    <g id="DARK">
      <g id="CRWSYNC">
        <path class="cls-1" d="m648,36v54h-162v108h162v54h-173.48c-23.48,0-42.52-19.04-42.52-42.52V78.52c0-23.48,19.04-42.52,42.52-42.52h173.48Z"/>
        <path class="cls-1" d="m857.48,36h-130.96c-23.48,0-42.52,19.04-42.52,42.52v173.48h54v-81h27l54,81h54l-54-81h38.48c23.48,0,42.52-19.04,42.52-42.52v-49.96c0-23.48-19.04-42.52-42.52-42.52Zm-11.48,81h-108v-27h108v27Z"/>
        <path class="cls-1" d="m936,36v173.48c0,23.48,19.04,42.52,42.52,42.52h130.96c23.48,0,42.52-19.04,42.52-42.52V36h-54v162h-27v-108h-54v108h-27V36h-54Z"/>
        <path class="cls-1" d="m1404,36h-173.48c-23.48,0-42.52,19.04-42.52,42.52v92.48h162v27h-162v54h173.48c23.48,0,42.52-19.04,42.52-42.52v-92.48h-162v-27h162v-54Z"/>
        <path class="cls-1" d="m1440,36v92.48c0,23.48,19.04,42.52,42.52,42.52h38.48v81h54v-81h38.48c23.48,0,42.52-19.04,42.52-42.52V36h-54v81h-108V36h-54Z"/>
        <path class="cls-1" d="m1692,252V78.52c0-23.48,19.04-42.52,42.52-42.52h130.96c23.48,0,42.52,19.04,42.52,42.52v173.48h-54V90h-108v162h-54Z"/>
        <path class="cls-1" d="m2160,36v54h-162v108h162v54h-173.48c-23.48,0-42.52-19.04-42.52-42.52V78.52c0-23.48,19.04-42.52,42.52-42.52h173.48Z"/>
      </g>
      <g id="ICON">
        <path class="cls-1" d="m216,72l-36,72h-108v72h108l-36,72H56.69c-31.31,0-56.69-25.38-56.69-56.69v-102.61c0-31.31,25.38-56.69,56.69-56.69h159.31Z"/>
        <path class="cls-1" d="m144,216l36-72h108v-72h-108L216,0h87.31c31.31,0,56.69,25.38,56.69,56.69v102.61c0,31.31-25.38,56.69-56.69,56.69h-159.31Z"/>
      </g>
    </g>
  </g>
</svg>