<?xml version="1.0" encoding="UTF-8"?>
<svg id="b" data-name="Layer 2" xmlns="http://www.w3.org/2000/svg" width="1624.23" height="256" viewBox="0 0 1624.23 256">
  <g id="c" data-name="Layer 2">
    <g id="d" data-name="logo">
      <g id="e" data-name="CS">
        <path fill="#ffffff" d="m210.75,82.75c-12.09,12.09-18.75,28.16-18.75,45.25,0,.01,0,.03,0,.04l-64,.04s0-.06,0-.09C128,57.31,185.31,0,256,0v64c-17.1,0-33.17,6.66-45.25,18.75Z"/>
        <path fill="#ffffff" d="m192,128.04c-.01,17.08-6.67,33.13-18.74,45.21-12.09,12.09-28.16,18.75-45.25,18.75s-33.17-6.66-45.25-18.75c-12.09-12.09-18.75-28.16-18.75-45.25s6.66-33.17,18.75-45.25c12.09-12.09,28.16-18.75,45.25-18.75V0C57.31,0,0,57.31,0,128s57.31,128,128,128,127.95-57.26,128-127.91l-64-.04Z"/>
      </g>
      <g>
        <path fill="#ffffff" d="m412.58,225c-18.03,0-34.04-4.11-48-12.33-13.97-8.22-24.93-19.53-32.88-33.94-7.96-14.41-11.93-30.98-11.93-49.72s3.98-35.31,11.93-49.72c7.96-14.41,18.87-25.72,32.75-33.95,13.88-8.22,29.83-12.33,47.87-12.33,12.73,0,24.57,2.25,35.54,6.76,10.96,4.51,20.55,10.79,28.77,18.83,8.22,8.05,14.54,17.28,18.96,27.71l-33.68,12.46c-3.01-6.54-6.99-12.24-11.93-17.1-4.95-4.86-10.61-8.66-16.97-11.4-6.37-2.74-13.26-4.11-20.69-4.11-10.79,0-20.38,2.7-28.77,8.09-8.4,5.4-14.94,12.77-19.63,22.14-4.69,9.37-7.03,20.25-7.03,32.62s2.39,23.29,7.16,32.75c4.77,9.46,11.4,16.89,19.89,22.28,8.49,5.4,18.21,8.09,29.17,8.09,7.6,0,14.54-1.46,20.82-4.38,6.27-2.92,11.84-6.94,16.71-12.07,4.86-5.13,8.79-11.05,11.8-17.77l33.68,12.2c-4.42,10.79-10.74,20.33-18.96,28.64-8.22,8.31-17.81,14.76-28.77,19.36-10.96,4.59-22.9,6.9-35.8,6.9Z"/>
        <path fill="#ffffff" d="m522.9,221.82V36.18h68.95c13.08,0,24.66,2.57,34.74,7.69,10.08,5.13,17.94,12.16,23.6,21.08,5.66,8.93,8.49,19.32,8.49,31.16s-3.27,22.94-9.81,32.22c-6.54,9.28-15.12,16.31-25.72,21.08l42.96,72.4h-41.11l-37.92-65.77h-27.85v65.77h-36.33Zm36.33-98.92h32.88c5.48,0,10.38-1.15,14.72-3.45,4.33-2.3,7.78-5.48,10.34-9.55,2.56-4.06,3.85-8.66,3.85-13.79,0-7.96-2.88-14.41-8.62-19.36-5.75-4.95-13.13-7.43-22.14-7.43h-31.03v53.57Z"/>
        <path fill="#ffffff" d="m693.95,36.18v185.63h39.51l54.1-80.09,54.1,80.09h39.25V36.18h-36.07v128.88l-57.28-84.33-57.28,84.07V36.18h-36.33Z"/>
        <path fill="#ffffff" d="m983.54,225c-9.37,0-18.12-1.15-26.25-3.45-8.13-2.3-15.38-5.52-21.75-9.68-6.37-4.15-11.63-8.79-15.78-13.92-4.16-5.13-6.85-10.52-8.09-16.18l35.54-10.61c2.3,6.01,6.37,11.18,12.2,15.51,5.83,4.33,13.17,6.59,22.01,6.76,9.37.18,17.01-1.86,22.94-6.1,5.92-4.24,8.88-9.72,8.88-16.44,0-5.83-2.34-10.74-7.03-14.72-4.69-3.98-11.1-7.03-19.23-9.15l-24.13-6.36c-9.02-2.3-16.97-5.79-23.87-10.48-6.9-4.68-12.29-10.47-16.18-17.37-3.89-6.9-5.83-14.94-5.83-24.13,0-17.5,5.79-31.16,17.37-40.97,11.58-9.81,27.98-14.72,49.19-14.72,11.84,0,22.23,1.72,31.16,5.17,8.92,3.45,16.4,8.35,22.41,14.72,6.01,6.37,10.61,13.88,13.79,22.54l-35.27,10.87c-2.12-6.01-6.01-11.14-11.67-15.38-5.66-4.24-12.82-6.36-21.48-6.36s-15.78,2.03-20.82,6.1c-5.04,4.07-7.56,9.81-7.56,17.24,0,5.83,1.99,10.43,5.97,13.79,3.98,3.36,9.41,5.93,16.31,7.69l24.4,6.1c15.91,3.89,28.28,10.87,37.13,20.95,8.84,10.08,13.26,21.31,13.26,33.68,0,10.96-2.65,20.55-7.96,28.77-5.3,8.22-12.99,14.63-23.07,19.23-10.08,4.59-22.28,6.9-36.6,6.9Z"/>
        <path fill="#ffffff" d="m1129.65,221.82v-78.23l-65.77-107.4h41.37l42.43,71.07,42.7-71.07h41.37l-65.77,107.14v78.5h-36.33Z"/>
        <path fill="#ffffff" d="m1253.76,221.82V36.18h37.92l90.7,124.64V36.18h36.07v185.63h-36.07l-92.29-127.03v127.03h-36.33Z"/>
        <path fill="#ffffff" d="m1540.7,225c-18.03,0-34.04-4.11-48-12.33-13.97-8.22-24.93-19.53-32.88-33.94-7.96-14.41-11.93-30.98-11.93-49.72s3.98-35.31,11.93-49.72c7.96-14.41,18.87-25.72,32.75-33.95,13.88-8.22,29.83-12.33,47.87-12.33,12.73,0,24.57,2.25,35.54,6.76,10.96,4.51,20.55,10.79,28.77,18.83,8.22,8.05,14.54,17.28,18.96,27.71l-33.68,12.46c-3.01-6.54-6.99-12.24-11.93-17.1-4.95-4.86-10.61-8.66-16.97-11.4-6.37-2.74-13.26-4.11-20.69-4.11-10.79,0-20.38,2.7-28.77,8.09-8.4,5.4-14.94,12.77-19.62,22.14-4.69,9.37-7.03,20.25-7.03,32.62s2.39,23.29,7.16,32.75c4.77,9.46,11.4,16.89,19.89,22.28,8.49,5.4,18.21,8.09,29.17,8.09,7.6,0,14.54-1.46,20.82-4.38,6.27-2.92,11.84-6.94,16.71-12.07,4.86-5.13,8.79-11.05,11.8-17.77l33.68,12.2c-4.42,10.79-10.74,20.33-18.96,28.64-8.22,8.31-17.81,14.76-28.77,19.36-10.96,4.59-22.9,6.9-35.8,6.9Z"/>
      </g>
    </g>
  </g>
</svg>